<?xml version="1.0" encoding="UTF-8"?>
<svg xmlns="http://www.w3.org/2000/svg" xmlns:xlink="http://www.w3.org/1999/xlink" viewBox="723.02 873.26 2739.66 1852.07">
<path fill-rule="nonzero" fill="rgb(1.568604%, 43.136597%, 72.157288%)" fill-opacity="1" d="M 2540.875 1300.464844 C 2521.550781 1096.054688 2365.6875 931.535156 2165.378906 899.183594 L 2165.378906 1300.464844 Z M 2540.875 1300.464844 "/>
<path fill-rule="nonzero" fill="rgb(1.568604%, 43.136597%, 72.157288%)" fill-opacity="1" d="M 1642.171875 1446.101562 L 1642.171875 1316.84375 C 1628.464844 1080.625 1432.710938 893.257812 1193.054688 893.257812 C 944.503906 893.257812 743.015625 1094.746094 743.015625 1343.296875 C 743.015625 1436.355469 771.261719 1522.820312 819.648438 1594.578125 C 826.34375 1604.511719 833.558594 1614.046875 841.007812 1623.394531 L 1643.089844 2705.328125 L 2019.742188 2197.265625 L 2019.742188 1446.101562 Z M 1642.171875 1446.101562 "/>
<path fill-rule="nonzero" fill="rgb(1.568604%, 43.136597%, 72.157288%)" fill-opacity="1" d="M 2019.742188 899.277344 C 1819.707031 931.847656 1664.121094 1096.25 1644.8125 1300.464844 L 2019.742188 1300.464844 Z M 2019.742188 899.277344 "/>
<path fill-rule="nonzero" fill="rgb(1.568604%, 43.136597%, 72.157288%)" fill-opacity="1" d="M 2992.632812 893.257812 C 2747.898438 893.257812 2548.9375 1088.648438 2542.882812 1331.925781 C 2542.882812 1331.898438 2542.878906 1331.867188 2542.878906 1331.835938 L 2542.878906 1420.316406 L 2542.875 1420.316406 L 2542.875 1446.101562 L 2165.378906 1446.101562 L 2165.378906 2196.5 L 2542.597656 2705.328125 L 3344.679688 1623.394531 C 3352.128906 1614.046875 3359.34375 1604.511719 3366.039062 1594.578125 C 3414.425781 1522.816406 3442.675781 1436.355469 3442.675781 1343.296875 C 3442.675781 1094.746094 3241.183594 893.257812 2992.632812 893.257812 "/>
<path fill-rule="nonzero" fill="rgb(100%, 100%, 100%)" fill-opacity="1" d="M 2165.378906 1300.464844 L 2152.546875 1300.464844 L 2152.546875 1300.910156 L 2165.378906 1300.910156 Z M 2165.378906 1300.464844 "/>
<path fill-rule="nonzero" fill="rgb(100%, 100%, 100%)" fill-opacity="1" d="M 2033.136719 1300.464844 L 2019.742188 1300.464844 L 2019.742188 1300.910156 L 2033.136719 1300.910156 Z M 2033.136719 1300.464844 "/>
</svg>
