<?xml version="1.0" encoding="UTF-8"?>
<svg xmlns="http://www.w3.org/2000/svg" xmlns:xlink="http://www.w3.org/1999/xlink" viewBox="3686.97 1072.13 5371.22 1434.07">
<path fill-rule="nonzero" fill="rgb(13.725281%, 9.803772%, 8.627319%)" fill-opacity="1" d="M 4024.550781 1309.769531 C 3992.832031 1339.570312 3976.972656 1378.027344 3976.972656 1425.101562 C 3976.972656 1471.230469 3992.832031 1509.683594 4024.550781 1540.429688 C 4059.144531 1575.039062 4107.667969 1592.328125 4170.15625 1592.328125 C 4232.621094 1592.328125 4281.632812 1575.039062 4317.203125 1540.429688 C 4348.921875 1510.664062 4364.773438 1472.207031 4364.773438 1425.101562 C 4364.773438 1378.027344 4348.921875 1339.570312 4317.203125 1309.769531 C 4281.632812 1276.140625 4232.621094 1259.324219 4170.15625 1259.324219 C 4107.667969 1259.324219 4059.144531 1276.140625 4024.550781 1309.769531 M 4475.78125 1205.976562 C 4544.011719 1264.601562 4578.140625 1338.136719 4578.140625 1426.550781 C 4578.140625 1514.019531 4544.011719 1587.066406 4475.78125 1645.675781 C 4400.816406 1711.050781 4298.457031 1743.703125 4168.714844 1743.703125 C 4038.964844 1743.703125 3937.082031 1711.050781 3863.082031 1645.675781 C 3795.804688 1587.066406 3762.171875 1514.019531 3762.171875 1426.550781 C 3762.171875 1338.136719 3795.804688 1264.601562 3863.082031 1205.976562 C 3937.082031 1141.597656 4038.964844 1109.382812 4168.714844 1109.382812 C 4298.457031 1109.382812 4400.816406 1141.597656 4475.78125 1205.976562 M 4697.378906 1831.273438 L 4697.378906 1099.351562 L 4910.738281 1099.351562 L 4910.738281 2486.203125 L 4697.378906 2486.203125 L 4697.378906 1997.175781 L 4277.859375 1997.175781 L 4277.859375 2486.203125 L 4064.496094 2486.203125 L 4064.496094 1997.175781 L 3706.972656 1997.175781 L 3706.972656 1831.273438 Z M 4697.378906 1831.273438 "/>
<path fill-rule="nonzero" fill="rgb(13.725281%, 9.803772%, 8.627319%)" fill-opacity="1" d="M 6241.492188 1347.78125 L 5347.671875 1347.78125 L 5347.671875 1704.996094 L 6254.460938 1704.996094 L 6254.460938 1866.5625 L 5311.636719 1866.5625 C 5252.03125 1866.5625 5206.863281 1852.347656 5176.117188 1823.914062 C 5148.226562 1797.304688 5134.3125 1760.164062 5134.3125 1712.445312 L 5134.3125 1185.40625 L 6241.492188 1185.40625 Z M 6312.128906 2386.726562 L 5063.667969 2386.726562 L 5063.667969 2220.992188 L 6312.128906 2220.992188 Z M 6312.128906 2386.726562 "/>
<path fill-rule="nonzero" fill="rgb(13.725281%, 9.803772%, 8.627319%)" fill-opacity="1" d="M 7622.722656 1185.40625 L 7622.722656 1689.050781 C 7622.722656 1789.0625 7615.984375 1884.449219 7602.535156 1975.28125 C 7589.066406 2067.945312 7569.375 2138.417969 7543.425781 2220.992188 L 7337.273438 2220.992188 C 7360.34375 2148.53125 7378.113281 2091.339844 7390.621094 2015.191406 C 7403.09375 1934.46875 7409.359375 1848.675781 7409.359375 1757.859375 L 7409.359375 1347.78125 L 6515.542969 1347.78125 L 6515.542969 1185.40625 Z M 7686.148438 2386.726562 L 6452.109375 2386.726562 L 6452.109375 2220.992188 L 6609.246094 2220.992188 L 6609.246094 1704.996094 L 6822.609375 1704.996094 L 6822.609375 2220.992188 L 6989.835938 2220.992188 L 6989.835938 1704.996094 L 7203.203125 1704.996094 L 7203.203125 2220.992188 L 7686.148438 2220.992188 Z M 7686.148438 2386.726562 "/>
<path fill-rule="nonzero" fill="rgb(13.725281%, 9.803772%, 8.627319%)" fill-opacity="1" d="M 8111.222656 1530.59375 C 8075.652344 1569.03125 8057.882812 1615.175781 8057.882812 1668.980469 C 8057.882812 1724.738281 8074.6875 1771.339844 8108.335938 1808.816406 C 8145.820312 1851.132812 8196.75 1872.25 8261.152344 1872.25 C 8327.472656 1872.25 8380.3125 1851.132812 8419.726562 1808.816406 C 8456.242188 1770.394531 8474.519531 1723.761719 8474.519531 1668.980469 C 8474.519531 1611.316406 8457.214844 1564.242188 8422.613281 1527.707031 C 8385.136719 1488.308594 8333.710938 1468.59375 8268.363281 1468.59375 C 8203.960938 1468.59375 8151.589844 1489.269531 8111.222656 1530.59375 M 8824.835938 2220.992188 L 8824.835938 1099.351562 L 9038.191406 1099.351562 L 9038.191406 2486.203125 L 8824.835938 2486.203125 L 8824.835938 2386.726562 L 7832.988281 2386.726562 L 7832.988281 2220.992188 L 8157.351562 2220.992188 L 8157.351562 2014.972656 C 8066.039062 1998.644531 7992.507812 1963.074219 7936.785156 1908.292969 C 7885.832031 1857.375 7856.527344 1798.257812 7848.84375 1730.980469 C 7838.257812 1636.800781 7856.996094 1555.101562 7905.066406 1485.898438 C 7957.917969 1411.90625 8036.261719 1365.289062 8140.054688 1346.058594 L 7848.84375 1346.058594 L 7848.84375 1187.289062 L 8145.820312 1187.289062 L 8145.820312 1092.132812 L 8359.1875 1092.132812 L 8359.1875 1187.289062 L 8683.550781 1187.289062 L 8683.550781 1346.058594 L 8383.695312 1346.058594 C 8488.433594 1366.25 8567.257812 1412.867188 8620.125 1485.898438 C 8670.082031 1556.0625 8690.261719 1637.761719 8680.671875 1730.980469 C 8670.082031 1798.257812 8639.335938 1857.375 8588.40625 1908.292969 C 8532.65625 1963.074219 8460.097656 1998.175781 8370.714844 2013.539062 L 8370.714844 2220.992188 Z M 8824.835938 2220.992188 "/>
</svg>
