<?xml version="1.0" encoding="UTF-8"?>
<svg xmlns="http://www.w3.org/2000/svg" xmlns:xlink="http://www.w3.org/1999/xlink" width="9921.26pt" height="3401.57pt" viewBox="0 0 9921.26 3401.57">
<path fill-rule="nonzero" fill="rgb(13.725281%, 9.803772%, 8.627319%)" fill-opacity="1" d="M 4024.550781 1309.769531 C 3992.832031 1339.570312 3976.972656 1378.027344 3976.972656 1425.101562 C 3976.972656 1471.230469 3992.832031 1509.683594 4024.550781 1540.429688 C 4059.144531 1575.039062 4107.667969 1592.328125 4170.15625 1592.328125 C 4232.621094 1592.328125 4281.632812 1575.039062 4317.203125 1540.429688 C 4348.921875 1510.664062 4364.773438 1472.207031 4364.773438 1425.101562 C 4364.773438 1378.027344 4348.921875 1339.570312 4317.203125 1309.769531 C 4281.632812 1276.140625 4232.621094 1259.324219 4170.15625 1259.324219 C 4107.667969 1259.324219 4059.144531 1276.140625 4024.550781 1309.769531 M 4475.78125 1205.976562 C 4544.011719 1264.601562 4578.140625 1338.136719 4578.140625 1426.550781 C 4578.140625 1514.019531 4544.011719 1587.066406 4475.78125 1645.675781 C 4400.816406 1711.050781 4298.457031 1743.703125 4168.714844 1743.703125 C 4038.964844 1743.703125 3937.082031 1711.050781 3863.082031 1645.675781 C 3795.804688 1587.066406 3762.171875 1514.019531 3762.171875 1426.550781 C 3762.171875 1338.136719 3795.804688 1264.601562 3863.082031 1205.976562 C 3937.082031 1141.597656 4038.964844 1109.382812 4168.714844 1109.382812 C 4298.457031 1109.382812 4400.816406 1141.597656 4475.78125 1205.976562 M 4697.378906 1831.273438 L 4697.378906 1099.351562 L 4910.738281 1099.351562 L 4910.738281 2486.203125 L 4697.378906 2486.203125 L 4697.378906 1997.175781 L 4277.859375 1997.175781 L 4277.859375 2486.203125 L 4064.496094 2486.203125 L 4064.496094 1997.175781 L 3706.972656 1997.175781 L 3706.972656 1831.273438 Z M 4697.378906 1831.273438 "/>
<path fill-rule="nonzero" fill="rgb(13.725281%, 9.803772%, 8.627319%)" fill-opacity="1" d="M 6241.492188 1347.78125 L 5347.671875 1347.78125 L 5347.671875 1704.996094 L 6254.460938 1704.996094 L 6254.460938 1866.5625 L 5311.636719 1866.5625 C 5252.03125 1866.5625 5206.863281 1852.347656 5176.117188 1823.914062 C 5148.226562 1797.304688 5134.3125 1760.164062 5134.3125 1712.445312 L 5134.3125 1185.40625 L 6241.492188 1185.40625 Z M 6312.128906 2386.726562 L 5063.667969 2386.726562 L 5063.667969 2220.992188 L 6312.128906 2220.992188 Z M 6312.128906 2386.726562 "/>
<path fill-rule="nonzero" fill="rgb(13.725281%, 9.803772%, 8.627319%)" fill-opacity="1" d="M 7622.722656 1185.40625 L 7622.722656 1689.050781 C 7622.722656 1789.0625 7615.984375 1884.449219 7602.535156 1975.28125 C 7589.066406 2067.945312 7569.375 2138.417969 7543.425781 2220.992188 L 7337.273438 2220.992188 C 7360.34375 2148.53125 7378.113281 2091.339844 7390.621094 2015.191406 C 7403.09375 1934.46875 7409.359375 1848.675781 7409.359375 1757.859375 L 7409.359375 1347.78125 L 6515.542969 1347.78125 L 6515.542969 1185.40625 Z M 7686.148438 2386.726562 L 6452.109375 2386.726562 L 6452.109375 2220.992188 L 6609.246094 2220.992188 L 6609.246094 1704.996094 L 6822.609375 1704.996094 L 6822.609375 2220.992188 L 6989.835938 2220.992188 L 6989.835938 1704.996094 L 7203.203125 1704.996094 L 7203.203125 2220.992188 L 7686.148438 2220.992188 Z M 7686.148438 2386.726562 "/>
<path fill-rule="nonzero" fill="rgb(13.725281%, 9.803772%, 8.627319%)" fill-opacity="1" d="M 8111.222656 1530.59375 C 8075.652344 1569.03125 8057.882812 1615.175781 8057.882812 1668.980469 C 8057.882812 1724.738281 8074.6875 1771.339844 8108.335938 1808.816406 C 8145.820312 1851.132812 8196.75 1872.25 8261.152344 1872.25 C 8327.472656 1872.25 8380.3125 1851.132812 8419.726562 1808.816406 C 8456.242188 1770.394531 8474.519531 1723.761719 8474.519531 1668.980469 C 8474.519531 1611.316406 8457.214844 1564.242188 8422.613281 1527.707031 C 8385.136719 1488.308594 8333.710938 1468.59375 8268.363281 1468.59375 C 8203.960938 1468.59375 8151.589844 1489.269531 8111.222656 1530.59375 M 8824.835938 2220.992188 L 8824.835938 1099.351562 L 9038.191406 1099.351562 L 9038.191406 2486.203125 L 8824.835938 2486.203125 L 8824.835938 2386.726562 L 7832.988281 2386.726562 L 7832.988281 2220.992188 L 8157.351562 2220.992188 L 8157.351562 2014.972656 C 8066.039062 1998.644531 7992.507812 1963.074219 7936.785156 1908.292969 C 7885.832031 1857.375 7856.527344 1798.257812 7848.84375 1730.980469 C 7838.257812 1636.800781 7856.996094 1555.101562 7905.066406 1485.898438 C 7957.917969 1411.90625 8036.261719 1365.289062 8140.054688 1346.058594 L 7848.84375 1346.058594 L 7848.84375 1187.289062 L 8145.820312 1187.289062 L 8145.820312 1092.132812 L 8359.1875 1092.132812 L 8359.1875 1187.289062 L 8683.550781 1187.289062 L 8683.550781 1346.058594 L 8383.695312 1346.058594 C 8488.433594 1366.25 8567.257812 1412.867188 8620.125 1485.898438 C 8670.082031 1556.0625 8690.261719 1637.761719 8680.671875 1730.980469 C 8670.082031 1798.257812 8639.335938 1857.375 8588.40625 1908.292969 C 8532.65625 1963.074219 8460.097656 1998.175781 8370.714844 2013.539062 L 8370.714844 2220.992188 Z M 8824.835938 2220.992188 "/>
<path fill-rule="nonzero" fill="rgb(1.568604%, 43.136597%, 72.157288%)" fill-opacity="1" d="M 2540.875 1300.464844 C 2521.550781 1096.054688 2365.6875 931.535156 2165.378906 899.183594 L 2165.378906 1300.464844 Z M 2540.875 1300.464844 "/>
<path fill-rule="nonzero" fill="rgb(1.568604%, 43.136597%, 72.157288%)" fill-opacity="1" d="M 1642.171875 1446.101562 L 1642.171875 1316.84375 C 1628.464844 1080.625 1432.710938 893.257812 1193.054688 893.257812 C 944.503906 893.257812 743.015625 1094.746094 743.015625 1343.296875 C 743.015625 1436.355469 771.261719 1522.820312 819.648438 1594.578125 C 826.34375 1604.511719 833.558594 1614.046875 841.007812 1623.394531 L 1643.089844 2705.328125 L 2019.742188 2197.265625 L 2019.742188 1446.101562 Z M 1642.171875 1446.101562 "/>
<path fill-rule="nonzero" fill="rgb(1.568604%, 43.136597%, 72.157288%)" fill-opacity="1" d="M 2019.742188 899.277344 C 1819.707031 931.847656 1664.121094 1096.25 1644.8125 1300.464844 L 2019.742188 1300.464844 Z M 2019.742188 899.277344 "/>
<path fill-rule="nonzero" fill="rgb(1.568604%, 43.136597%, 72.157288%)" fill-opacity="1" d="M 2992.632812 893.257812 C 2747.898438 893.257812 2548.9375 1088.648438 2542.882812 1331.925781 C 2542.882812 1331.898438 2542.878906 1331.867188 2542.878906 1331.835938 L 2542.878906 1420.316406 L 2542.875 1420.316406 L 2542.875 1446.101562 L 2165.378906 1446.101562 L 2165.378906 2196.5 L 2542.597656 2705.328125 L 3344.679688 1623.394531 C 3352.128906 1614.046875 3359.34375 1604.511719 3366.039062 1594.578125 C 3414.425781 1522.816406 3442.675781 1436.355469 3442.675781 1343.296875 C 3442.675781 1094.746094 3241.183594 893.257812 2992.632812 893.257812 "/>
<path fill-rule="nonzero" fill="rgb(100%, 100%, 100%)" fill-opacity="1" d="M 2165.378906 1300.464844 L 2152.546875 1300.464844 L 2152.546875 1300.910156 L 2165.378906 1300.910156 Z M 2165.378906 1300.464844 "/>
<path fill-rule="nonzero" fill="rgb(100%, 100%, 100%)" fill-opacity="1" d="M 2033.136719 1300.464844 L 2019.742188 1300.464844 L 2019.742188 1300.910156 L 2033.136719 1300.910156 Z M 2033.136719 1300.464844 "/>
<path fill-rule="nonzero" fill="rgb(34.901428%, 34.117126%, 34.117126%)" fill-opacity="1" d="M 8049.96875 692.691406 L 8049.96875 729.652344 L 8036.820312 729.652344 L 8036.820312 692.691406 L 8015.796875 692.691406 L 8015.796875 764.324219 C 8014.035156 765.105469 8011.792969 765.796875 8009.058594 766.382812 C 8006.308594 766.992188 8003.027344 767.289062 7999.199219 767.289062 L 7977.011719 767.289062 L 7977.011719 710.445312 L 8004.621094 710.445312 L 8004.621094 697.789062 L 7955.160156 697.789062 L 7955.160156 765.484375 C 7955.160156 769.867188 7956.53125 773.371094 7959.273438 775.996094 C 7962.015625 778.621094 7965.734375 779.9375 7970.445312 779.9375 L 7998.375 779.9375 C 8002.425781 779.9375 8005.871094 779.472656 8008.722656 778.546875 C 8011.574219 777.621094 8013.929688 776.488281 8015.796875 775.175781 L 8015.796875 828.75 L 8036.820312 828.75 L 8036.820312 742.152344 L 8049.96875 742.152344 L 8049.96875 828.75 L 8070.996094 828.75 L 8070.996094 692.691406 Z M 8049.96875 692.691406 "/>
<path fill-rule="nonzero" fill="rgb(34.901428%, 34.117126%, 34.117126%)" fill-opacity="1" d="M 8134.109375 784.410156 L 8111.933594 784.410156 L 8111.933594 813.640625 C 8111.933594 818.246094 8113.378906 821.867188 8116.28125 824.492188 C 8119.179688 827.117188 8122.824219 828.429688 8127.21875 828.429688 L 8204.101562 828.429688 L 8204.101562 815.960938 L 8134.109375 815.960938 Z M 8134.109375 784.410156 "/>
<path fill-rule="nonzero" fill="rgb(34.901428%, 34.117126%, 34.117126%)" fill-opacity="1" d="M 8199.34375 723.777344 L 8199.34375 692.398438 L 8177.152344 692.398438 L 8177.152344 792.949219 L 8199.34375 792.949219 L 8199.34375 736.429688 L 8215.300781 736.429688 L 8215.300781 723.777344 Z M 8199.34375 723.777344 "/>
<path fill-rule="nonzero" fill="rgb(34.901428%, 34.117126%, 34.117126%)" fill-opacity="1" d="M 8215.300781 723.730469 L 8215.300781 723.699219 C 8215.21875 723.714844 8215.238281 723.726562 8215.300781 723.730469 "/>
<path fill-rule="nonzero" fill="rgb(34.901428%, 34.117126%, 34.117126%)" fill-opacity="1" d="M 8215.300781 736.503906 L 8215.300781 736.472656 C 8215.238281 736.492188 8215.21875 736.503906 8215.300781 736.503906 "/>
<path fill-rule="nonzero" fill="rgb(34.901428%, 34.117126%, 34.117126%)" fill-opacity="1" d="M 8117.1875 756.808594 C 8114.445312 752.972656 8113.082031 748.429688 8113.082031 743.167969 C 8113.082031 737.902344 8114.445312 733.390625 8117.1875 729.621094 C 8119.929688 725.828125 8122.984375 723.941406 8126.386719 723.941406 C 8129.894531 723.941406 8132.984375 725.828125 8135.667969 729.621094 C 8138.347656 733.390625 8139.699219 737.902344 8139.699219 743.167969 C 8139.699219 748.429688 8138.347656 752.972656 8135.667969 756.808594 C 8132.984375 760.644531 8129.894531 762.550781 8126.386719 762.550781 C 8122.984375 762.550781 8119.929688 760.644531 8117.1875 756.808594 M 8150.628906 765.105469 C 8157.359375 759.023438 8160.734375 751.710938 8160.734375 743.167969 C 8160.734375 738.449219 8159.605469 734.050781 8157.359375 729.945312 C 8155.109375 725.828125 8152.078125 722.40625 8148.238281 719.675781 L 8165.480469 719.675781 L 8165.480469 707.1875 L 8137.398438 707.1875 L 8137.398438 690.925781 L 8115.214844 690.925781 L 8115.214844 707.1875 L 8087.121094 707.1875 L 8087.121094 719.675781 L 8104.539062 719.675781 C 8100.8125 722.40625 8097.792969 725.828125 8095.496094 729.945312 C 8093.203125 734.050781 8092.046875 738.449219 8092.046875 743.167969 C 8092.046875 751.710938 8095.441406 759.023438 8102.230469 765.105469 C 8109.027344 771.175781 8117.078125 774.222656 8126.386719 774.222656 C 8135.804688 774.222656 8143.882812 771.175781 8150.628906 765.105469 "/>
<path fill-rule="nonzero" fill="rgb(34.901428%, 34.117126%, 34.117126%)" fill-opacity="1" d="M 8488.84375 781.476562 L 8488.84375 768.988281 L 8361.679688 768.988281 L 8361.679688 781.476562 L 8414.257812 781.476562 L 8414.257812 828.625 L 8436.449219 828.625 L 8436.449219 781.476562 Z M 8488.84375 781.476562 "/>
<path fill-rule="nonzero" fill="rgb(34.901428%, 34.117126%, 34.117126%)" fill-opacity="1" d="M 8405.304688 748.367188 C 8415.546875 744.039062 8422.195312 738.640625 8425.269531 732.183594 C 8428.449219 738.535156 8435.175781 743.90625 8445.472656 748.28125 C 8455.769531 752.660156 8465.410156 754.855469 8474.382812 754.855469 L 8484.90625 745.324219 C 8473.625 745.21875 8462.722656 741.554688 8452.199219 734.316406 C 8441.6875 727.089844 8436.449219 718.484375 8436.449219 708.527344 L 8436.449219 693.410156 L 8414.09375 693.410156 L 8414.09375 708.527344 C 8414.09375 718.484375 8408.863281 727.089844 8398.402344 734.316406 C 8387.9375 741.554688 8377.015625 745.21875 8365.628906 745.324219 L 8376.144531 754.855469 C 8385.335938 754.855469 8395.066406 752.699219 8405.304688 748.367188 "/>
<path fill-rule="nonzero" fill="rgb(34.901428%, 34.117126%, 34.117126%)" fill-opacity="1" d="M 8587.980469 744.277344 C 8587.980469 754.445312 8587.671875 762.832031 8587.078125 769.402344 C 8586.460938 775.984375 8584.738281 781.617188 8581.898438 786.332031 L 8601.445312 786.332031 C 8604.082031 782.054688 8606.128906 776.535156 8607.609375 769.738281 C 8609.074219 762.941406 8609.832031 755.003906 8609.832031 745.910156 L 8609.832031 694.648438 L 8511.734375 694.648438 L 8511.734375 707.296875 L 8587.980469 707.296875 Z M 8587.980469 744.277344 "/>
<path fill-rule="nonzero" fill="rgb(34.901428%, 34.117126%, 34.117126%)" fill-opacity="1" d="M 8577.128906 741.3125 L 8555.769531 741.3125 L 8555.769531 796.027344 L 8544.773438 796.027344 L 8544.773438 741.3125 L 8523.414062 741.3125 L 8523.414062 796.027344 L 8501.703125 796.027344 L 8501.703125 808.515625 L 8622.960938 808.515625 L 8622.960938 796.027344 L 8577.128906 796.027344 Z M 8577.128906 741.3125 "/>
<path fill-rule="nonzero" fill="rgb(34.901428%, 34.117126%, 34.117126%)" fill-opacity="1" d="M 8747.601562 718.195312 L 8747.601562 693.050781 L 8725.410156 693.050781 L 8725.410156 770.109375 L 8747.601562 770.109375 L 8747.601562 730.667969 L 8763.464844 730.667969 L 8763.464844 718.195312 Z M 8747.601562 718.195312 "/>
<path fill-rule="nonzero" fill="rgb(34.901428%, 34.117126%, 34.117126%)" fill-opacity="1" d="M 8718.433594 815.621094 C 8715.535156 819.453125 8712.097656 821.375 8708.148438 821.375 C 8704.210938 821.375 8700.796875 819.453125 8697.894531 815.621094 C 8694.992188 811.785156 8693.535156 807.457031 8693.535156 802.640625 C 8693.535156 797.710938 8694.992188 793.300781 8697.894531 789.410156 C 8700.796875 785.527344 8704.210938 783.574219 8708.148438 783.574219 C 8712.097656 783.574219 8715.535156 785.527344 8718.433594 789.410156 C 8721.347656 793.300781 8722.785156 797.710938 8722.785156 802.640625 C 8722.785156 807.457031 8721.347656 811.785156 8718.433594 815.621094 M 8733.953125 780.21875 C 8726.835938 774.027344 8718.242188 770.929688 8708.148438 770.929688 C 8698.089844 770.929688 8689.496094 774.027344 8682.367188 780.21875 C 8675.25 786.40625 8671.691406 793.878906 8671.691406 802.640625 C 8671.691406 811.402344 8675.25 818.847656 8682.367188 824.984375 C 8689.496094 831.117188 8698.089844 834.191406 8708.148438 834.191406 C 8718.242188 834.191406 8726.835938 831.117188 8733.953125 824.984375 C 8741.089844 818.847656 8744.636719 811.402344 8744.636719 802.640625 C 8744.636719 793.878906 8741.089844 786.40625 8733.953125 780.21875 "/>
<path fill-rule="nonzero" fill="rgb(34.901428%, 34.117126%, 34.117126%)" fill-opacity="1" d="M 8688.203125 757.371094 C 8695.371094 762.457031 8702.417969 765.285156 8709.308594 765.84375 L 8720.160156 756.625 C 8711.175781 754.890625 8703.214844 750.015625 8696.253906 742.011719 C 8689.3125 734.011719 8685.8125 723.726562 8685.8125 711.117188 L 8685.8125 708.484375 L 8711.113281 708.484375 L 8711.113281 696.003906 L 8638.332031 696.003906 L 8638.332031 708.484375 L 8663.304688 708.484375 L 8663.304688 711.117188 C 8663.304688 723.5 8659.855469 733.734375 8652.957031 741.855469 C 8646.054688 749.957031 8638.117188 754.890625 8629.125 756.625 L 8639.984375 765.84375 C 8646.875 765.191406 8653.929688 762.335938 8661.171875 757.300781 C 8668.398438 752.253906 8672.902344 746.824219 8674.636719 741.023438 C 8676.503906 746.824219 8681.046875 752.289062 8688.203125 757.371094 "/>
<path fill-rule="nonzero" fill="rgb(34.901428%, 34.117126%, 34.117126%)" fill-opacity="1" d="M 8847.894531 771.542969 L 8886.34375 771.542969 L 8886.34375 759.0625 L 8812.074219 759.0625 L 8812.074219 740.652344 L 8883.71875 740.652344 L 8883.71875 694.648438 L 8788.746094 694.648438 L 8788.746094 707.296875 L 8861.535156 707.296875 L 8861.535156 728.171875 L 8789.902344 728.171875 L 8789.902344 757.742188 C 8789.902344 762.125 8791.15625 765.523438 8793.6875 767.929688 C 8796.210938 770.34375 8799.808594 771.542969 8804.515625 771.542969 L 8825.714844 771.542969 L 8825.714844 796.03125 L 8776.109375 796.03125 L 8776.109375 808.515625 L 8897.347656 808.515625 L 8897.347656 796.03125 L 8847.894531 796.03125 Z M 8847.894531 771.542969 "/>
<path fill-rule="nonzero" fill="rgb(34.901428%, 34.117126%, 34.117126%)" fill-opacity="1" d="M 8956.203125 761.136719 C 8952.804688 761.136719 8949.824219 759.191406 8947.238281 755.3125 C 8944.664062 751.425781 8943.371094 746.957031 8943.371094 741.917969 C 8943.371094 736.769531 8944.664062 732.277344 8947.238281 728.445312 C 8949.824219 724.617188 8952.804688 722.6875 8956.203125 722.6875 C 8959.6875 722.6875 8962.714844 724.617188 8965.226562 728.445312 C 8967.757812 732.277344 8969.019531 736.769531 8969.019531 741.917969 C 8969.019531 746.957031 8967.757812 751.425781 8965.226562 755.3125 C 8962.714844 759.191406 8959.6875 761.136719 8956.203125 761.136719 M 9007.457031 692.632812 L 9007.457031 778.230469 C 9004.71875 779.101562 9001.386719 779.847656 8997.4375 780.453125 C 8993.5 781.050781 8989.109375 781.347656 8984.289062 781.347656 L 8967.214844 781.347656 L 8967.214844 771.328125 C 8973.882812 769.140625 8979.386719 765.363281 8983.726562 759.988281 C 8988.042969 754.632812 8990.207031 748.601562 8990.207031 741.917969 C 8990.207031 737.75 8989.335938 733.835938 8987.582031 730.164062 C 8985.816406 726.503906 8983.46875 723.292969 8980.507812 720.554688 L 8995.796875 720.554688 L 8995.796875 708.082031 L 8967.214844 708.082031 L 8967.214844 691.8125 L 8945.023438 691.8125 L 8945.023438 708.082031 L 8916.597656 708.082031 L 8916.597656 720.554688 L 8931.875 720.554688 C 8928.921875 723.292969 8926.574219 726.503906 8924.808594 730.164062 C 8923.066406 733.835938 8922.183594 737.75 8922.183594 741.917969 C 8922.183594 748.601562 8924.328125 754.632812 8928.59375 759.988281 C 8932.871094 765.363281 8938.335938 769.140625 8945.023438 771.328125 L 8945.023438 781.347656 L 8915.773438 781.347656 L 8915.773438 793.839844 L 8983.46875 793.839844 C 8987.960938 793.839844 8992.320312 793.402344 8996.535156 792.527344 C 9000.757812 791.640625 9004.390625 790.496094 9007.457031 789.070312 L 9007.457031 828.675781 L 9029.640625 828.675781 L 9029.640625 692.632812 Z M 9007.457031 692.632812 "/>
<path fill-rule="nonzero" fill="rgb(34.901428%, 34.117126%, 34.117126%)" fill-opacity="1" d="M 8297.96875 745.097656 L 8288.265625 745.097656 C 8288.820312 743.25 8289.261719 741.351562 8289.589844 739.445312 C 8289.917969 737.523438 8290.082031 735.527344 8290.082031 733.441406 C 8290.082031 731.46875 8289.9375 729.558594 8289.671875 727.6875 C 8289.394531 725.828125 8288.933594 724.023438 8288.265625 722.269531 L 8297.96875 722.269531 Z M 8265.429688 749.957031 C 8262.804688 754.398438 8259.46875 756.613281 8255.410156 756.613281 C 8251.359375 756.613281 8247.988281 754.398438 8245.308594 749.957031 C 8242.621094 745.523438 8241.285156 740.015625 8241.285156 733.441406 C 8241.285156 726.984375 8242.621094 721.535156 8245.308594 717.089844 C 8247.988281 712.660156 8251.359375 710.445312 8255.410156 710.445312 C 8259.46875 710.445312 8262.804688 712.660156 8265.429688 717.089844 C 8268.058594 721.535156 8269.378906 726.984375 8269.378906 733.441406 C 8269.378906 740.015625 8268.058594 745.523438 8265.429688 749.957031 M 8297.96875 692.691406 L 8297.96875 709.625 L 8281.042969 709.625 C 8277.972656 705.992188 8274.226562 703.132812 8269.789062 700.996094 C 8265.351562 698.855469 8260.5625 697.789062 8255.410156 697.789062 C 8245.882812 697.789062 8237.695312 701.300781 8230.851562 708.304688 C 8224.003906 715.304688 8220.582031 723.695312 8220.582031 733.441406 C 8220.582031 743.300781 8224.003906 751.679688 8230.851562 758.582031 C 8237.695312 765.484375 8245.882812 768.929688 8255.410156 768.929688 C 8260.34375 768.929688 8264.992188 767.929688 8269.378906 765.898438 C 8273.761719 763.875 8277.535156 761.15625 8280.714844 757.761719 L 8297.96875 757.761719 L 8297.96875 828.746094 L 8318.671875 828.746094 L 8318.671875 692.691406 Z M 8297.96875 692.691406 "/>
<path fill-rule="nonzero" fill="rgb(34.901428%, 34.117126%, 34.117126%)" fill-opacity="1" d="M 8325.574219 828.75 L 8346.273438 828.75 L 8346.273438 692.691406 L 8325.574219 692.691406 Z M 8325.574219 828.75 "/>
<path fill-rule="nonzero" fill="rgb(0%, 59.608459%, 88.235474%)" fill-opacity="1" d="M 7725.816406 725.753906 L 7672.753906 725.753906 L 7672.753906 703.445312 L 7725.816406 703.445312 L 7725.816406 649.820312 L 7751.480469 643.523438 L 7751.480469 628.839844 L 7639.496094 608.839844 C 7634.90625 608.003906 7631.132812 611.164062 7631.132812 615.816406 L 7631.132812 861.402344 C 7631.132812 866.046875 7634.882812 869.132812 7639.457031 868.234375 L 7725.816406 851.042969 Z M 7725.816406 725.753906 "/>
<path fill-rule="nonzero" fill="rgb(36.077881%, 70.980835%, 19.215393%)" fill-opacity="1" d="M 7837.9375 622.289062 L 7751.480469 643.523438 L 7751.480469 703.445312 L 7804.582031 703.445312 L 7804.582031 725.753906 L 7751.480469 725.753906 L 7751.480469 845.945312 L 7725.816406 851.042969 L 7725.816406 887.503906 L 7837.960938 916.363281 C 7842.480469 917.523438 7846.175781 914.640625 7846.175781 909.984375 L 7846.175781 628.757812 C 7846.175781 624.085938 7842.453125 621.195312 7837.9375 622.289062 "/>
<path fill-rule="nonzero" fill="rgb(100%, 100%, 100%)" fill-opacity="1" d="M 7751.46875 725.765625 L 7804.554688 725.765625 L 7804.554688 703.460938 L 7751.46875 703.460938 L 7751.46875 643.523438 L 7725.800781 649.832031 L 7725.800781 703.460938 L 7672.746094 703.460938 L 7672.746094 725.765625 L 7725.800781 725.765625 L 7725.800781 851.042969 L 7751.46875 845.945312 Z M 7751.46875 725.765625 "/>
</svg>
